PathFileType	3	(X/Y/Z)	C:\Users\dbak576\Desktop\AnkleMomentFeedback\AB28\AB28_05Apr - Copy\AB28_05Apr_static_01.trc
DataRate	CameraRate	NumFrames	NumMarkers	Units	OrigDataRate	OrigDataStartFrame	OrigNumFrames
200.0	200.0	4	42	mm	200.0	71	141	
Frame#	Time	LASI			RASI			LPSI			RPSI			LTH1			LTH2			LTH3			LTH4			LMFC			LLFC			LTB1			LTB2			LTB3			LTB4			LMMAL			LLMAL			LCAL			LToe			LMT1			LMT5			RTH1			RTH2			RTH3			RTH4			RMFC			RLFC			RTB1			RTB2			RTB3			RTB4			RMMAL			RLMAL			RCAL			RToe			RMT1			RMT5			C7			T10			LACR1			RACR1			CLAV			RBack			
		X1	Y1	Z1	X2	Y2	Z2	X3	Y3	Z3	X4	Y4	Z4	X5	Y5	Z5	X6	Y6	Z6	X7	Y7	Z7	X8	Y8	Z8	X9	Y9	Z9	X10	Y10	Z10	X11	Y11	Z11	X12	Y12	Z12	X13	Y13	Z13	X14	Y14	Z14	X15	Y15	Z15	X16	Y16	Z16	X17	Y17	Z17	X18	Y18	Z18	X19	Y19	Z19	X20	Y20	Z20	X21	Y21	Z21	X22	Y22	Z22	X23	Y23	Z23	X24	Y24	Z24	X25	Y25	Z25	X26	Y26	Z26	X27	Y27	Z27	X28	Y28	Z28	X29	Y29	Z29	X30	Y30	Z30	X31	Y31	Z31	X32	Y32	Z32	X33	Y33	Z33	X34	Y34	Z34	X35	Y35	Z35	X36	Y36	Z36	X37	Y37	Z37	X38	Y38	Z38	X39	Y39	Z39	X40	Y40	Z40	X41	Y41	Z41	X42	Y42	Z42	
71	0.345	342.53598	991.77985	-821.2182	590.14575	1006.1174	-827.91235	425.39749	1033.9113	-647.6944	516.98041	1035.5894	-646.5899	283.49255	799.26904	-792.51404	328.21646	798.0744	-838.72064	303.74298	757.05084	-819.5813	292.86697	708.03217	-801.64868	406.40405	495.92578	-725.69543	290.59579	523.65338	-716.63623	265.53015	398.3559	-663.18451	265.3895	359.13998	-693.77045	276.61475	309.30762	-712.62744	273.27094	400.77563	-724.6015	376.92291	108.60271	-717.79535	292.4061	91.283859	-684.83575	348.36487	47.430687	-620.61737	329.09677	51.62167	-896.37006	362.89359	38.086372	-835.7334	251.81761	38.448528	-801.70868	663.99298	849.54443	-789.64227	677.74878	806.86011	-757.86969	676.82581	775.45398	-721.92719	675.67145	759.35522	-780.66937	545.53772	505.19724	-724.25452	665.40826	518.58575	-710.11481	664.79321	260.93875	-722.74622	675.56647	262.96576	-656.2735	675.5451	224.11494	-687.25018	666.33276	172.93996	-708.07031	586.26917	108.70192	-710.26093	667.77484	97.377441	-671.98651	602.00653	50.619629	-616.34155	663.30554	54.159222	-887.68182	619.3631	42.502258	-828.71075	720.95239	44.936737	-779.12079	458.23654	1506.8263	-687.03027	467.8201	1237.7484	-616.98767	289.09879	1483.5626	-732.60895	634.77667	1461.7235	-746.47382	462.36841	1428.1971	-826.27838	581.34277	1380.4458	-620.67401
72	0.35	342.47305	991.71777	-821.19073	590.23578	1006.14	-828.00421	425.40164	1033.9071	-647.70184	516.98212	1035.5364	-646.62054	283.47678	799.2677	-792.48346	328.26199	798.07233	-838.7478	303.68311	756.99103	-819.59784	292.94949	707.99121	-801.69067	406.34595	495.92584	-725.75336	290.65533	523.67706	-716.64166	265.50256	398.38348	-663.18475	265.35263	359.12167	-693.74646	276.54901	309.29529	-712.70697	273.30161	400.76239	-724.6131	376.91318	108.59911	-717.80969	292.42154	91.283203	-684.82178	348.38586	47.392502	-620.62207	329.11508	51.636772	-896.40302	362.9173	38.066414	-835.71552	251.82114	38.469337	-801.69965	664.00195	849.50787	-789.65607	677.77081	806.84888	-757.85016	676.8913	775.44537	-721.99402	675.65027	759.34656	-780.71051	545.54187	505.23694	-724.29126	665.38989	518.58539	-710.14496	664.87531	260.94202	-722.73657	675.60626	262.99161	-656.29077	675.55518	224.09261	-687.24664	666.3089	172.94279	-708.05688	586.28815	108.6914	-710.21411	667.80408	97.379059	-671.99927	602.05273	50.64291	-616.37061	663.31921	54.16029	-887.68011	619.4223	42.489563	-828.73596	720.94348	44.926922	-779.11804	458.17355	1506.8575	-687.0553	467.81039	1237.7184	-617.00751	289.12747	1483.5276	-732.67291	634.79309	1461.6755	-746.48883	462.30869	1428.1708	-826.30365	581.32025	1380.4327	-620.70514
73	0.355	342.46606	991.77539	-821.28778	590.08636	1006.0516	-827.90613	425.39374	1033.9484	-647.80646	516.98297	1035.5699	-646.68805	283.46716	799.27478	-792.49841	328.22949	798.04669	-838.80042	303.72501	757.0202	-819.6239	292.89557	707.99841	-801.71252	406.34579	495.9256	-725.75372	290.51999	523.70068	-716.65924	265.51276	398.38318	-663.21112	265.35413	359.15732	-693.77673	276.53644	309.30493	-712.69421	273.2204	400.79956	-724.69904	376.89502	108.58364	-717.80688	292.38089	91.283012	-684.8457	348.3895	47.392673	-620.62256	329.08218	51.591225	-896.35852	362.86722	38.033684	-835.74524	251.82143	38.46661	-801.73724	664.01825	849.51135	-789.63702	677.72906	806.84448	-757.90442	676.90289	775.52252	-721.93927	675.677	759.3548	-780.71332	545.50684	505.24847	-724.29016	665.3905	518.59277	-710.14441	664.85443	260.93555	-722.80499	675.56189	263.01099	-656.31622	675.55286	224.09433	-687.24792	666.29419	172.95198	-708.06244	586.27264	108.6976	-710.26001	667.81024	97.392616	-671.98749	602.01642	50.620113	-616.36975	663.27826	54.161129	-887.71112	619.43384	42.516212	-828.74292	720.92596	44.914883	-779.11755	458.2164	1506.8407	-687.0899	467.84991	1237.5737	-618.06635	289.08209	1483.5214	-732.71191	634.74683	1461.7191	-746.54755	462.27255	1428.1958	-826.35577	581.28705	1380.4834	-620.77936
74	0.36	342.41464	991.74628	-821.29248	590.20862	1006.0809	-828.03992	425.34866	1033.9193	-647.81958	516.95892	1035.5922	-646.65234	283.47952	799.27429	-792.53333	328.18164	798.07727	-838.8017	303.74146	757.03528	-819.66547	292.90948	708.02777	-801.73749	406.38464	495.87106	-725.74744	290.61591	523.65765	-716.6615	265.47894	398.40063	-663.26404	265.35776	359.20718	-693.83557	276.47879	309.30435	-712.67511	273.29971	400.79852	-724.69647	376.89029	108.59423	-717.81	292.3551	91.27919	-684.81995	348.37183	47.411251	-620.68066	329.08035	51.610592	-896.34943	362.89676	38.045883	-835.71899	251.78835	38.473614	-801.7226	663.96204	849.48309	-789.65405	677.72656	806.83069	-757.91278	676.87421	775.46027	-722.0611	675.67865	759.31696	-780.73944	545.48199	505.23566	-724.32166	665.37573	518.58813	-710.1355	664.79987	260.93451	-722.76434	675.57343	262.99942	-656.33777	675.53473	224.08873	-687.24414	666.30566	172.9332	-708.0528	586.21857	108.70695	-710.33026	667.82379	97.376007	-672.00873	602.02454	50.597023	-616.34717	663.28333	54.155491	-887.71149	619.33429	42.470791	-828.70581	720.91064	44.920048	-779.09021	458.1929	1506.8445	-687.14313	467.82343	1237.5941	-618.13202	289.08218	1483.5353	-732.78186	634.73267	1461.6794	-746.56879	462.28458	1428.1924	-826.40967	581.29376	1380.4536	-620.80457
